<?xml version="1.0" encoding="utf-8"?>
<!-- Generator: Adobe Illustrator 27.0.1, SVG Export Plug-In . SVG Version: 6.00 Build 0)  -->
<svg version="1.1" id="Livello_1" xmlns="http://www.w3.org/2000/svg" xmlns:xlink="http://www.w3.org/1999/xlink" x="0px" y="0px"
     width="20px" height="20px" viewBox="0 0 203.8 239" style="enable-background:new 0 0 203.8 239;" xml:space="preserve">
<g>
    <circle cx="64.8" cy="137.9" r="15.1"/>
    <path d="M153.3,137.9c0-8.4-6.8-15.1-15.1-15.1c-7.6,0-13.8,5.5-14.9,12.8l0,0c-2.6,16.6-7.2,21.1-23.7,23.7l0,0
        c-7.2,1.1-12.8,7.4-12.8,14.9c0,8.4,6.8,15.1,15.1,15.1c7.6,0,13.8-5.5,14.9-12.8l0,0c2.6-16.6,7.2-21.1,23.7-23.7l0,0
        C147.8,151.7,153.3,145.4,153.3,137.9z"/>
    <path d="M153.3,101.6c0-8.4-6.8-15.1-15.1-15.1c-7.5,0-13.7,5.5-14.9,12.6l0,0c-2.8,16.8-7.5,21.3-24.3,23.8l0,0
        c-6.5,1-11.7,6.1-12.7,12.6l0,0c-2.6,16.6-7.2,21.1-23.7,23.7l0,0c-7.2,1.1-12.8,7.4-12.8,14.9c0,8.4,6.8,15.1,15.1,15.1
        c7.6,0,13.8-5.5,14.9-12.8l0,0c2.6-16.6,7.2-21.1,23.7-23.7l0,0c6.4-1,11.5-6,12.6-12.4l0,0c2.8-16.8,7.5-21.4,24.3-23.9l0,0
        C147.7,115.4,153.3,109.2,153.3,101.6L153.3,101.6z"/>
    <circle cx="138.2" cy="174.2" r="15.1"/>
    <circle cx="64.8" cy="64.9" r="15.1"/>
    <path d="M117,64.9c0-8.4-6.8-15.1-15.1-15.1c-7.5,0-13.8,5.5-14.9,12.7l0,0C84.2,79.4,79.6,84,62.6,86.7l0,0
        c-7.3,1.1-12.8,7.4-12.8,14.9c0,8.4,6.8,15.1,15.1,15.1c7.5,0,13.8-5.5,14.9-12.7l0,0c2.8-16.9,7.4-21.5,24.4-24.2l0,0
        C111.4,78.7,117,72.4,117,64.9z"/>
    <path d="M153.3,64.9c0-8.4-6.8-15.1-15.1-15.1c-7.5,0-13.8,5.5-14.9,12.7l0,0c-2.8,16.9-7.4,21.5-24.4,24.2l0,0
        c-7.3,1.1-12.8,7.4-12.8,14.9c0,8.4,6.8,15.1,15.1,15.1c7.5,0,13.8-5.5,14.9-12.7l0,0c2.8-16.9,7.4-21.5,24.4-24.2l0,0
        C147.7,78.7,153.3,72.4,153.3,64.9z"/>
</g>
</svg>
